<?xml version="1.0" encoding="UTF-8"?>
<svg xmlns="http://www.w3.org/2000/svg" width="200" height="200" viewBox="0 0 200 200">
  <rect width="200" height="200" rx="20" fill="#f8eef1"/>
  <path d="M40,50 C100,30 150,30 160,50 C170,70 130,90 100,90 C70,90 30,70 40,50 Z" fill="#c15079" opacity="0.6"/>
  <path d="M38,73 L38,127 L53,127 Q65,127 71,121 Q77,115 77,103 Q77,91 71,85 Q65,79 53,79 L38,73 Z M50,89 L53,89 Q57,89 59,91 Q61,93 61,103 Q61,113 59,115 Q57,117 53,117 L50,117 L50,89 Z" fill="#7a1c44"/>
  <path d="M84,73 L84,127 L120,127 L120,117 L96,117 L96,105 L115,105 L115,95 L96,95 L96,83 L120,83 L120,73 L84,73 Z" fill="#7a1c44"/>
  <path d="M127,73 L127,127 L139,127 L139,105 L154,127 L168,127 L150,101 L167,73 L153,73 L139,97 L139,73 L127,73 Z" fill="#7a1c44"/>
</svg> 